<svg version="1.1" width="172" height="153" viewBox="-1 16 172 153" xmlns="http://www.w3.org/2000/svg" xmlns:xlink="http://www.w3.org/1999/xlink">
  <defs>
    <linearGradient id="grad_1" y2="1">
      <stop offset="0" stop-color="#666666" stop-opacity="1"/>
      <stop offset="1" stop-color="#0278BD" stop-opacity="1"/>
    </linearGradient>
    <radialGradient id="grad_2" cx="0.195" cy="0.1338" r="1.1260599999999998">
      <stop offset="0" stop-color="#0A85C4" stop-opacity="1"/>
      <stop offset="1" stop-color="#039CE5" stop-opacity="1"/>
    </radialGradient>
    <radialGradient id="grad_3" cx="0.7238" cy="0.5142" r="0.9409399999999999">
      <stop offset="0" stop-color="#0089CF" stop-opacity="1"/>
      <stop offset="1" stop-color="#666666" stop-opacity="1"/>
    </radialGradient>
  </defs>
  <!-- Exported by Scratch - http://scratch.mit.edu/ -->
  <g id="ID0.30737582640722394" transform="matrix(1, 0, 0, 1, -40, -25)">
    <path id="ID0.9133156975731254" fill="#0278BD" stroke="none" d="M 260 179.500 L 285.500 179.500 L 285.500 252.500 L 260 252.500 L 260 179.500 Z " transform="matrix(1.194692850112915, -0.10401300340890884, 0.06292977184057236, 0.7228109240531921, -186.95, -2.3)"/>
    <path id="ID0.5545609649270773" fill="#0278BD" stroke="none" d="M 273 243.500 C 276.587 243.500 279.837 244.957 282.190 247.310 C 284.543 249.663 286 252.913 286 256.500 C 286 260.087 284.543 263.337 282.190 265.690 C 279.837 268.043 276.587 269.500 273 269.500 C 269.413 269.500 266.163 268.043 263.810 265.690 C 261.457 263.337 260 260.087 260 256.500 C 260 252.913 261.457 249.663 263.810 247.310 C 266.163 244.957 269.413 243.500 273 243.500 Z " transform="matrix(1.149610161781311, -0.10008799284696579, 0.10008799284696579, 1.149610161781311, -184.6, -115.2)"/>
  </g>
  <path id="ID0.8645549523644149" fill="url(#grad_1)" stroke="none" stroke-linecap="round" d="M 242.100 217.650 L 318 210.850 L 286.300 238.700 L 233.500 232.900 L 242.100 217.650 Z " transform="matrix(0.4568100571632385, -0.3786410093307495, 0.6291064620018005, 0.7589831948280334, -151.85, 42.9)"/>
  <path id="ID0.394340293481946" fill="url(#grad_2)" stroke="none" d="M 234.500 124 C 263.882 124 290.507 135.934 309.787 155.213 C 329.066 174.493 341 201.118 341 230.500 C 341 259.882 329.066 286.507 309.787 305.787 C 290.507 325.066 263.882 337 234.500 337 C 205.118 337 178.493 325.066 159.213 305.787 C 139.934 286.507 128 259.882 128 230.500 C 128 201.118 139.934 174.493 159.213 155.213 C 178.493 135.934 205.118 124 234.500 124 Z " transform="matrix(0.5868544578552246, 0, 0, 0.5868544578552246, -74.2, -55.85)"/>
  <path id="ID0.1637036888860166" fill="url(#grad_3)" stroke="none" stroke-linecap="round" d="M 244.750 161.500 C 258.338 161.500 270.650 167.019 279.566 175.934 C 288.481 184.850 294 197.162 294 210.750 C 294 224.338 288.481 236.650 279.566 245.566 C 270.650 254.481 258.338 260 244.750 260 C 231.162 260 218.850 254.481 209.934 245.566 C 201.019 236.650 195.500 224.338 195.500 210.750 C 195.500 197.162 201.019 184.850 209.934 175.934 C 218.850 167.019 231.162 161.500 244.750 161.500 Z " transform="matrix(1.008325219154358, 0, 0, 1.0452795028686523, -170.85, -137)"/>
  <path id="ID0.394340293481946" fill="#F3E3FF" stroke="none" d="M 234.500 124 C 263.882 124 290.507 135.934 309.787 155.213 C 329.066 174.493 341 201.118 341 230.500 C 341 259.882 329.066 286.507 309.787 305.787 C 290.507 325.066 263.882 337 234.500 337 C 205.118 337 178.493 325.066 159.213 305.787 C 139.934 286.507 128 259.882 128 230.500 C 128 201.118 139.934 174.493 159.213 155.213 C 178.493 135.934 205.118 124 234.500 124 Z " transform="matrix(0.28169015049934387, 0, 0, 0.28169015049934387, -3, 15.75)"/>
  <path id="ID0.40457344288006425" fill="#FFFFFF" stroke="none" d="M 317 112 L 317 112 L 317 114 L 317 114 L 317 112 Z " transform="matrix(1, 0, 0, 1, -160, -112)"/>
</svg>